<svg width="56" height="26" viewBox="0 0 56 26" fill="none" xmlns="http://www.w3.org/2000/svg">
<path d="M46.1689 8.28601C47.1347 8.28138 48.0659 8.33375 48.9941 8.62878C50.075 8.97233 51.0073 9.65688 51.8193 10.4335V8.73816H56V25.0106H51.9316L51.6875 23.7499C50.4921 24.9451 49.5539 25.0949 47.8643 25.3934C46.5789 25.6205 45.1344 25.4822 43.9092 25.0448C37.0167 22.5833 36.885 11.9752 43.3438 8.93933C44.2194 8.52769 45.2015 8.29064 46.1689 8.28601ZM14.1895 8.56042C15.2653 8.25679 16.4748 8.18073 17.5801 8.35339C19.2044 8.60725 20.4235 9.36496 21.6475 10.4335V8.73816H25.8291V25.0106H21.6475L21.4375 23.5624C20.5024 24.4973 19.7746 24.8253 18.4834 25.2128C17.632 25.4681 16.766 25.4824 15.8848 25.4608C14.961 25.4382 14.0079 25.2009 13.1729 24.8094C7.4321 22.1181 6.71807 13.3052 11.9297 9.64734C12.6126 9.16813 13.3861 8.78722 14.1895 8.56042ZM37.9199 12.3544C36.6205 12.3544 35.0503 12.2153 33.9648 13.076C32.6947 14.0833 32.7217 15.5195 32.7217 16.9872V25.0448L28.4277 25.0106V17.5526C28.4277 14.6353 28.205 11.6062 30.9141 9.72937C31.4269 9.37408 32.0168 9.10501 32.6084 8.91003C34.3089 8.34978 36.1533 8.39929 37.9199 8.39929V12.3544ZM6.39258 9.19031V25.0106H2.09863V9.19031H6.39258ZM20.2871 20.3563C23.4812 17.428 21.071 11.3701 16.5625 12.1815C15.7509 12.3277 14.9386 12.662 14.3076 13.1981C11.3623 15.7014 12.7207 20.856 16.5625 21.4091C17.0283 21.4761 17.4513 21.5224 17.9189 21.4384C18.7769 21.2843 19.637 20.9522 20.2871 20.3563ZM48.542 12.2684C47.9493 12.1288 47.3381 12.0826 46.7344 12.1776C42.2259 12.8876 41.4415 19.6703 45.8301 21.2196C46.6466 21.5079 47.474 21.5169 48.3164 21.3778C52.9914 20.6055 53.0647 13.3338 48.542 12.2684Z" fill="url(#paint0_linear_3253_12530)"/>
<path d="M4.25 0L5.51218 2.98781L8.49999 4.25L5.51218 5.51218L4.25 8.49999L2.98781 5.51218L0 4.25L2.98781 2.98781L4.25 0Z" fill="#535BC2"/>
<defs>
<linearGradient id="paint0_linear_3253_12530" x1="29.0493" y1="25.5014" x2="29.0493" y2="8.26257" gradientUnits="userSpaceOnUse">
<stop stop-color="#2B3078"/>
<stop offset="1" stop-color="#535BC2"/>
</linearGradient>
</defs>
</svg>
