<svg width="27" height="27" viewBox="0 0 27 27" fill="none" xmlns="http://www.w3.org/2000/svg">
<path d="M3.375 8.4V3.975C3.375 3.64363 3.64363 3.375 3.975 3.375H10.65C10.9814 3.375 11.25 3.64363 11.25 3.975V8.4C11.25 8.73137 10.9814 9 10.65 9H3.975C3.64363 9 3.375 8.73137 3.375 8.4Z" stroke="white" stroke-width="1.5"/>
<path d="M15.75 23.025V18.6C15.75 18.2686 16.0186 18 16.35 18H23.025C23.3564 18 23.625 18.2686 23.625 18.6V23.025C23.625 23.3564 23.3564 23.625 23.025 23.625H16.35C16.0186 23.625 15.75 23.3564 15.75 23.025Z" stroke="white" stroke-width="1.5"/>
<path d="M15.75 14.025V3.975C15.75 3.64363 16.0186 3.375 16.35 3.375H23.025C23.3564 3.375 23.625 3.64363 23.625 3.975V14.025C23.625 14.3564 23.3564 14.625 23.025 14.625H16.35C16.0186 14.625 15.75 14.3564 15.75 14.025Z" stroke="white" stroke-width="1.5"/>
<path d="M3.375 23.025V12.975C3.375 12.6436 3.64363 12.375 3.975 12.375H10.65C10.9814 12.375 11.25 12.6436 11.25 12.975V23.025C11.25 23.3564 10.9814 23.625 10.65 23.625H3.975C3.64363 23.625 3.375 23.3564 3.375 23.025Z" stroke="white" stroke-width="1.5"/>
</svg>
