<svg width="27" height="27" viewBox="0 0 27 27" fill="none" xmlns="http://www.w3.org/2000/svg">
<path d="M3.375 11.25V21.625C3.375 22.7296 4.27043 23.625 5.375 23.625H21.625C22.7296 23.625 23.625 22.7296 23.625 21.625V11.25" stroke="white" stroke-width="1.5"/>
<path d="M16.6882 23.625V16.875C16.6882 15.6324 15.6809 14.625 14.4382 14.625H12.1882C10.9456 14.625 9.93823 15.6324 9.93823 16.875V23.625" stroke="white" stroke-width="1.5" stroke-miterlimit="16"/>
<path d="M24.5683 10.6142L22.6243 3.81017C22.5507 3.55259 22.3153 3.375 22.0474 3.375H17.4375L17.9753 9.82877C17.9909 10.0154 18.0921 10.1839 18.2528 10.2801C18.6797 10.5359 19.5641 11.039 20.25 11.25C21.4265 11.612 23.1626 11.4669 24.0972 11.3475C24.4487 11.3025 24.6657 10.9549 24.5683 10.6142Z" stroke="white" stroke-width="1.5"/>
<path d="M15.75 11.25C16.4072 11.0478 17.2468 10.5774 17.6914 10.3134C17.883 10.1997 17.9884 9.98603 17.9699 9.76404L17.4375 3.375H9.5625L9.03008 9.76404C9.01158 9.98603 9.11705 10.1997 9.30858 10.3134C9.75319 10.5774 10.5928 11.0478 11.25 11.25C12.9296 11.7668 14.0704 11.7668 15.75 11.25Z" stroke="white" stroke-width="1.5"/>
<path d="M4.37567 3.81017L2.43166 10.6142C2.33431 10.9549 2.55131 11.3025 2.90281 11.3475C3.83739 11.4669 5.57352 11.612 6.75 11.25C7.43588 11.039 8.32031 10.5359 8.74723 10.2801C8.9079 10.1839 9.00913 10.0154 9.02469 9.82877L9.5625 3.375H4.95258C4.68469 3.375 4.44926 3.55259 4.37567 3.81017Z" stroke="white" stroke-width="1.5"/>
</svg>
